<?xml version="1.0" encoding="UTF-8" standalone="no"?>
<!-- Created with Inkscape (http://www.inkscape.org/) -->

<svg
   width="1828.1301mm"
   height="402.04846mm"
   viewBox="0 0 1828.1301 402.04846"
   version="1.1"
   id="svg5"
   inkscape:version="1.1.2 (b8e25be833, 2022-02-05)"
   sodipodi:docname="blackLogo.svg"
   xmlns:inkscape="http://www.inkscape.org/namespaces/inkscape"
   xmlns:sodipodi="http://sodipodi.sourceforge.net/DTD/sodipodi-0.dtd"
   xmlns="http://www.w3.org/2000/svg"
   xmlns:svg="http://www.w3.org/2000/svg">
  <sodipodi:namedview
     id="namedview7"
     pagecolor="#ffffff"
     bordercolor="#666666"
     borderopacity="1.0"
     inkscape:pageshadow="2"
     inkscape:pageopacity="0.0"
     inkscape:pagecheckerboard="0"
     inkscape:document-units="mm"
     showgrid="false"
     inkscape:zoom="0.092537353"
     inkscape:cx="4457.6594"
     inkscape:cy="3317.5792"
     inkscape:window-width="1920"
     inkscape:window-height="1017"
     inkscape:window-x="-8"
     inkscape:window-y="-8"
     inkscape:window-maximized="1"
     inkscape:current-layer="layer1"
     fit-margin-top="0"
     fit-margin-left="0"
     fit-margin-right="0"
     fit-margin-bottom="0" />
  <defs
     id="defs2" />
  <g
     inkscape:label="Layer 1"
     inkscape:groupmode="layer"
     id="layer1"
     transform="translate(803.27085,66.998979)">
    <g
       transform="matrix(0.03527778,0,0,-0.03527778,-991.63258,1236.7606)"
       fill="#000000"
       stroke="none"
       id="g39">
      <path
         d="m 23320,36954 c -25,-2 -106,-8 -180,-14 -1488,-119 -2886,-897 -3797,-2114 -609,-813 -968,-1778 -1043,-2801 -13,-180 -13,-550 0,-730 84,-1148 519,-2209 1266,-3085 126,-148 426,-448 574,-574 791,-674 1733,-1096 2749,-1231 257,-34 426,-45 702,-45 451,0 841,47 1278,156 147,36 474,136 551,168 12,5 38,-23 98,-103 407,-544 1043,-919 1705,-1006 136,-17 413,-20 537,-5 530,66 1011,322 1357,723 253,293 452,657 557,1020 29,100 24,140 -25,181 -60,51 -148,29 -192,-47 -45,-76 -161,-219 -253,-311 -254,-253 -553,-418 -874,-481 -118,-23 -342,-30 -470,-16 -436,51 -855,284 -1135,630 -32,40 -54,75 -49,80 5,4 52,40 106,80 186,139 355,287 553,486 434,434 750,875 1016,1420 608,1247 705,2680 270,3985 -232,694 -577,1294 -1063,1847 -125,143 -424,433 -568,553 -838,696 -1816,1107 -2890,1215 -144,15 -678,28 -780,19 z m 656,-254 c 787,-62 1519,-295 2201,-701 182,-109 274,-180 447,-349 602,-586 957,-1311 1036,-2115 14,-143 14,-493 0,-631 -61,-586 -275,-1154 -621,-1646 l -54,-77 -2,52 c -17,372 -55,623 -138,912 -219,765 -715,1447 -1370,1884 -61,40 -111,74 -112,75 -1,1 9,36 22,78 119,374 103,820 -41,1201 -139,365 -387,676 -714,896 -705,473 -1636,412 -2277,-149 -543,-474 -768,-1236 -569,-1923 15,-48 26,-92 26,-97 0,-5 -37,-34 -83,-64 -911,-600 -1482,-1612 -1525,-2706 l -7,-165 -71,105 c -298,438 -492,907 -573,1382 -35,201 -45,329 -45,558 0,318 31,557 109,858 174,664 604,1321 1156,1769 165,133 647,390 969,516 461,181 956,296 1440,336 152,12 645,13 796,1 z m -209,-383 c 75,-39 118,-81 150,-144 40,-84 37,-171 -10,-267 -20,-39 -49,-84 -65,-99 l -29,-28 25,-77 c 21,-62 26,-97 26,-182 1,-126 -17,-188 -74,-253 -56,-63 -123,-90 -214,-85 -165,9 -256,113 -264,304 -4,86 4,138 43,270 5,14 -4,32 -28,62 -106,127 -124,289 -44,394 82,107 161,140 322,135 96,-3 116,-6 162,-30 z m -1122,-319 c -84,-140 -156,-339 -190,-525 -50,-272 -21,-710 66,-976 97,-298 257,-498 503,-628 l 69,-37 38,-149 c 41,-164 101,-328 173,-472 26,-51 44,-96 41,-99 -3,-4 -44,1 -90,11 -569,117 -1054,558 -1224,1112 -58,192 -66,250 -66,490 1,189 4,234 23,321 67,309 218,590 435,812 78,80 255,227 264,219 2,-2 -17,-38 -42,-79 z m 1980,-19 c 285,-231 492,-577 567,-951 33,-163 33,-453 0,-615 -120,-596 -538,-1063 -1122,-1252 -68,-21 -199,-51 -228,-51 -14,0 -6,23 40,118 76,159 123,289 167,462 l 36,145 75,38 c 150,74 295,214 389,375 182,314 250,869 160,1291 -36,167 -125,388 -198,496 -44,64 -17,51 114,-56 z m -1610,-89 c 10,-30 30,-80 46,-111 l 28,-56 -15,-84 c -30,-163 3,-350 84,-475 153,-236 483,-302 722,-142 180,120 270,379 221,638 -12,64 -12,66 18,124 36,68 58,139 69,219 l 7,57 55,-75 c 106,-143 183,-321 227,-525 23,-107 26,-506 5,-640 -45,-279 -157,-518 -300,-638 l -47,-40 -2,132 c -2,218 -49,352 -163,467 -96,98 -243,159 -380,159 -134,0 -279,-59 -376,-152 -118,-113 -168,-256 -169,-479 v -127 l -27,19 c -48,35 -133,136 -176,212 -93,162 -144,361 -163,636 -27,403 59,728 266,1000 l 40,52 6,-58 c 3,-32 14,-83 24,-113 z m -3439,-1203 c -140,-301 -244,-669 -293,-1032 -25,-190 -25,-678 0,-865 101,-739 405,-1410 897,-1980 413,-478 642,-979 727,-1590 24,-177 24,-557 -1,-735 -38,-281 -116,-564 -221,-814 l -47,-112 -27,17 c -38,25 -192,146 -296,233 -118,99 -404,380 -513,504 -659,750 -1079,1654 -1216,2618 -40,277 -50,425 -50,724 0,460 41,796 150,1235 85,343 189,626 353,965 113,232 187,364 316,561 82,125 253,364 261,364 2,0 -16,-42 -40,-93 z m 8073,-19 c 513,-693 848,-1523 955,-2368 31,-241 38,-408 33,-732 -5,-325 -16,-461 -57,-715 -196,-1209 -822,-2304 -1765,-3088 -87,-73 -261,-205 -268,-205 -10,0 -100,218 -142,344 -116,352 -163,665 -152,1035 20,692 258,1300 720,1840 54,64 143,175 197,246 401,532 651,1154 731,1820 18,144 18,605 1,745 -45,368 -140,734 -262,1010 -23,52 -48,110 -56,128 -8,17 -12,32 -9,32 3,0 36,-42 74,-92 z m -3911,-53 c 100,-54 142,-140 149,-310 3,-60 0,-150 -6,-200 -20,-152 -71,-383 -112,-508 -38,-116 -156,-378 -176,-390 -6,-4 -35,42 -66,106 -98,197 -143,333 -199,598 -29,139 -32,171 -32,334 -1,167 1,184 22,229 33,72 67,113 115,138 66,33 87,38 172,35 66,-3 90,-8 133,-32 z m -1773,-832 c 227,-393 602,-699 1030,-842 478,-158 985,-121 1436,104 319,160 601,426 778,733 30,51 57,92 61,92 11,0 220,-150 305,-219 104,-84 297,-273 394,-386 388,-450 644,-1011 731,-1600 27,-178 38,-553 22,-712 l -10,-102 -77,-100 c -270,-355 -482,-831 -569,-1278 -45,-231 -59,-372 -59,-613 0,-243 15,-409 59,-625 13,-66 24,-122 24,-124 0,-2 -46,41 -103,95 -567,547 -1358,897 -2149,952 -65,5 -119,11 -121,13 -2,2 -1,117 1,254 l 4,250 74,43 c 188,110 415,316 516,467 103,156 168,323 190,487 9,71 18,102 38,133 103,153 151,340 129,500 -13,99 -62,230 -114,310 -21,33 -76,97 -121,143 -79,80 -83,85 -118,188 -47,135 -101,243 -184,369 -90,135 -310,356 -446,448 l -98,66 -74,-50 c -312,-210 -552,-520 -659,-849 -27,-81 -33,-90 -124,-185 -105,-110 -161,-201 -201,-330 -58,-191 -23,-409 98,-598 34,-52 41,-73 46,-133 14,-161 103,-380 217,-535 114,-154 269,-292 469,-417 l 95,-60 3,-250 2,-251 -32,-5 c -18,-2 -95,-9 -171,-15 -461,-37 -973,-196 -1382,-429 -229,-131 -463,-300 -664,-483 -68,-62 -121,-104 -118,-93 15,50 47,244 62,374 23,198 16,596 -13,785 -32,202 -68,354 -132,545 -115,345 -267,636 -476,911 l -73,96 -11,179 c -37,572 101,1182 382,1689 240,433 582,812 977,1081 52,35 97,64 100,64 4,0 29,-39 56,-87 z m 1689,-1302 c 203,-162 383,-434 453,-684 27,-98 28,-99 93,-154 165,-141 238,-281 228,-441 -6,-97 -34,-173 -95,-263 -26,-39 -51,-76 -55,-82 -3,-7 -11,-60 -17,-119 -13,-132 -49,-245 -112,-350 -91,-151 -210,-275 -369,-387 l -60,-42 v 226 226 l 108,107 c 238,238 473,524 450,548 -16,16 -335,-179 -509,-311 l -47,-35 -7,275 -7,275 103,107 c 149,157 262,303 246,320 -10,9 -141,-58 -245,-126 -60,-39 -112,-71 -115,-71 -4,0 -7,15 -7,33 0,122 -77,628 -99,650 -18,18 -71,-279 -92,-522 -7,-78 -16,-146 -19,-151 -4,-6 -46,16 -98,50 -91,60 -205,122 -250,135 -22,6 -23,5 -12,-17 28,-53 126,-173 233,-284 l 114,-119 -6,-277 -6,-277 -140,100 c -77,55 -177,123 -222,150 -83,50 -192,103 -199,96 -3,-2 18,-38 45,-79 61,-95 197,-251 376,-436 l 140,-145 -4,-216 c -2,-119 -5,-218 -7,-220 -2,-2 -46,28 -97,67 -269,204 -417,451 -434,722 -6,90 -8,97 -40,135 -19,22 -53,78 -76,123 -38,77 -42,92 -45,177 -4,75 0,108 17,163 27,90 104,198 196,275 39,32 73,66 77,75 3,9 20,62 37,117 59,195 163,372 304,522 76,80 190,183 204,183 3,0 33,-22 67,-49 z m 227,-3571 c 772,-77 1469,-408 2014,-954 187,-188 336,-380 493,-633 81,-131 168,-240 286,-359 171,-171 328,-283 539,-385 607,-293 1296,-250 1841,114 53,36 96,63 96,60 0,-9 -101,-154 -158,-225 -390,-490 -955,-751 -1567,-725 -717,31 -1394,428 -1806,1057 -236,362 -383,526 -647,722 -322,240 -736,403 -1134,447 -140,16 -408,13 -545,-4 -274,-36 -557,-126 -803,-257 -309,-163 -604,-420 -804,-701 -26,-37 -52,-67 -57,-67 -21,0 -332,150 -464,224 -170,95 -324,189 -325,198 0,3 37,58 83,121 236,330 516,603 852,829 424,286 944,477 1450,532 157,17 513,20 656,6 z m -110,-1120 c 506,-49 983,-281 1328,-645 93,-99 205,-242 194,-248 -17,-10 -236,-79 -353,-111 -855,-238 -1790,-244 -2650,-15 -122,32 -420,127 -420,134 0,2 35,48 79,102 93,116 266,286 373,366 422,315 947,466 1449,417 z"
         id="path9" />
      <path
         d="m 22924,35118 c -26,-12 -44,-49 -44,-89 0,-22 10,-41 34,-65 42,-42 95,-46 147,-11 70,47 61,113 -21,155 -47,24 -82,27 -116,10 z"
         id="path11" />
      <path
         d="m 24150,35114 c -84,-37 -105,-97 -50,-149 21,-20 42,-29 78,-33 44,-4 53,-1 83,26 29,26 34,37 34,77 0,39 -5,51 -28,71 -32,27 -67,30 -117,8 z"
         id="path13" />
      <path
         d="m 21970,32886 c -264,-123 -377,-203 -586,-411 -168,-166 -247,-270 -319,-419 -83,-169 -100,-241 -100,-416 0,-122 4,-158 23,-225 45,-156 122,-290 247,-431 l 60,-68 21,-130 c 80,-474 349,-891 719,-1115 31,-19 58,-31 61,-29 2,3 -32,72 -77,154 -206,373 -331,693 -405,1033 -14,62 -23,115 -22,116 2,1 23,10 48,19 176,67 365,243 452,418 72,145 98,256 98,418 0,95 -5,129 -25,192 -55,172 -69,269 -69,478 0,184 15,322 51,468 3,15 1,22 -8,21 -8,0 -84,-33 -169,-73 z m -125,-365 c -10,-31 13,-290 35,-397 11,-55 32,-136 45,-180 76,-249 -37,-537 -271,-694 -42,-27 -82,-50 -90,-50 -11,0 -14,20 -16,93 -4,188 7,401 28,557 l 6,45 -51,-65 c -91,-116 -157,-258 -200,-433 l -27,-109 -38,81 c -63,134 -78,275 -44,421 17,76 101,240 168,330 81,109 246,273 358,355 48,36 91,65 95,65 5,0 6,-9 2,-19 z"
         id="path15" />
      <path
         d="m 25089,32728 c 173,-305 286,-550 371,-808 52,-155 110,-380 110,-423 0,-9 -23,-24 -56,-38 -145,-58 -329,-218 -410,-355 -86,-145 -122,-271 -130,-449 -5,-113 -4,-125 24,-215 59,-188 67,-246 67,-480 0,-184 -4,-234 -24,-348 -13,-73 -21,-135 -18,-139 9,-9 268,111 373,173 140,82 246,166 384,304 294,293 422,549 423,845 0,231 -93,454 -271,646 l -60,65 -21,120 c -70,411 -273,775 -564,1009 -76,62 -203,145 -221,145 -4,0 6,-24 23,-52 z m 527,-1545 c 9,-62 -2,-459 -16,-551 -16,-107 -11,-112 42,-40 94,129 165,290 203,462 l 18,80 29,-58 c 93,-184 89,-397 -12,-598 -58,-117 -119,-198 -249,-331 -100,-102 -283,-257 -304,-257 -4,0 -7,37 -7,83 0,154 -28,337 -77,497 -45,151 -31,304 45,460 27,56 56,95 116,156 68,67 172,143 198,144 4,0 10,-21 14,-47 z"
         id="path17" />
      <path
         d="m 7203,33330 c -922,-90 -1626,-698 -1817,-1570 -48,-223 -60,-500 -31,-727 124,-946 841,-1636 1814,-1743 119,-13 472,-8 563,8 l 47,9 83,-85 c 245,-248 538,-406 880,-474 92,-18 145,-22 283,-22 149,1 182,4 266,27 307,81 529,257 664,527 57,113 115,324 115,418 v 35 l -52,-74 c -65,-95 -212,-239 -308,-306 -350,-239 -753,-287 -1134,-134 -43,17 -110,50 -149,73 -74,43 -197,129 -196,138 0,3 52,30 116,60 397,188 728,517 918,913 257,534 271,1178 38,1728 -153,360 -429,682 -763,890 -235,145 -523,250 -816,294 -123,19 -399,27 -521,15 z m 472,-416 c 664,-95 1179,-585 1315,-1248 45,-218 44,-498 -1,-721 -153,-753 -793,-1265 -1582,-1265 -1005,1 -1719,802 -1616,1811 97,951 908,1564 1884,1423 z"
         id="path19" />
      <path
         d="m 11881,33330 c -1118,-108 -1897,-989 -1858,-2100 15,-422 139,-794 374,-1123 69,-96 250,-287 348,-367 271,-221 618,-374 994,-437 150,-25 542,-25 692,0 376,63 723,216 994,437 98,80 279,271 348,367 235,329 359,701 374,1124 38,1067 -680,1926 -1741,2084 -133,19 -398,27 -525,15 z m 479,-416 c 275,-42 547,-159 754,-323 98,-78 247,-239 315,-342 379,-566 370,-1359 -22,-1916 -89,-127 -251,-285 -381,-371 -188,-126 -367,-201 -595,-249 -115,-25 -146,-27 -346,-27 -200,0 -231,2 -346,27 -325,69 -592,209 -808,426 -124,124 -208,239 -286,391 -240,471 -242,1077 -5,1551 106,210 318,451 509,578 349,231 777,321 1211,255 z"
         id="path21" />
      <path
         d="m 15910,33329 c -493,-47 -885,-306 -1034,-680 -50,-128 -60,-191 -60,-369 0,-150 3,-173 28,-255 83,-271 254,-455 576,-619 133,-68 373,-163 656,-260 399,-136 528,-189 662,-275 149,-96 252,-233 282,-374 16,-80 14,-230 -5,-301 -87,-328 -469,-535 -950,-512 -293,13 -559,117 -820,321 -82,64 -220,202 -289,288 -21,26 -46,47 -56,47 -21,0 -293,-233 -298,-255 -10,-46 262,-340 418,-452 263,-188 570,-304 905,-344 156,-18 442,-6 591,25 571,120 916,463 963,958 34,354 -92,665 -353,874 -189,152 -354,230 -856,409 -301,107 -500,185 -605,237 -279,139 -405,305 -405,530 0,155 47,266 160,378 131,131 315,207 557,230 407,38 774,-112 1061,-432 23,-27 51,-48 61,-48 29,0 281,239 281,266 0,50 -187,239 -337,341 -315,216 -717,312 -1133,272 z"
         id="path23" />
      <path
         d="m 31605,33334 c -125,-12 -233,-28 -332,-50 -558,-123 -1018,-452 -1303,-931 -209,-351 -310,-809 -270,-1232 58,-630 373,-1167 882,-1501 234,-155 521,-265 818,-315 132,-23 451,-31 591,-15 973,107 1690,796 1814,1743 17,135 20,393 5,517 -60,496 -280,932 -633,1255 -298,273 -673,446 -1101,510 -106,15 -390,27 -471,19 z m 425,-420 c 666,-103 1167,-573 1309,-1226 80,-369 36,-786 -117,-1111 -263,-559 -816,-896 -1469,-897 -714,0 -1314,420 -1532,1075 -90,269 -109,611 -51,908 108,554 504,1007 1038,1186 251,84 547,107 822,65 z"
         id="path25" />
      <path
         d="m 44681,33330 c -652,-63 -1207,-389 -1543,-905 -154,-236 -260,-527 -304,-832 -18,-128 -20,-409 -4,-538 83,-668 459,-1222 1040,-1534 173,-92 415,-173 635,-212 152,-27 447,-36 607,-20 392,41 757,183 1060,412 107,81 287,261 367,368 350,463 484,1073 365,1661 -171,845 -832,1459 -1706,1585 -131,19 -395,26 -517,15 z m 335,-400 c 231,-19 430,-73 618,-167 312,-156 540,-383 691,-688 119,-239 165,-427 172,-706 6,-205 -6,-334 -47,-495 -73,-291 -218,-546 -425,-747 -217,-213 -524,-367 -840,-423 -129,-22 -361,-29 -496,-14 -384,42 -702,192 -965,454 -298,299 -446,654 -461,1106 -21,671 297,1229 866,1514 176,89 398,150 604,165 150,12 144,12 283,1 z"
         id="path27" />
      <path
         d="m 48750,33333 c -356,-34 -630,-144 -831,-331 -139,-130 -224,-267 -274,-438 -65,-223 -44,-497 52,-689 92,-183 285,-356 534,-478 145,-70 337,-145 657,-256 360,-125 419,-148 554,-218 271,-140 388,-314 388,-572 -1,-345 -268,-591 -711,-657 -135,-19 -340,-15 -459,11 -322,70 -645,272 -865,539 -62,75 -85,96 -102,94 -32,-4 -293,-236 -293,-260 0,-11 29,-57 65,-103 346,-443 878,-695 1470,-695 439,0 792,123 1041,362 141,135 224,278 276,475 19,76 23,112 23,258 -1,142 -4,184 -23,259 -45,178 -132,326 -268,456 -181,173 -376,272 -919,465 -413,148 -554,205 -680,278 -207,120 -304,248 -324,430 -29,274 127,498 426,606 231,85 552,87 798,5 181,-59 362,-179 508,-335 61,-64 92,-90 105,-87 31,5 281,240 282,263 0,27 -138,184 -224,255 -201,166 -435,277 -691,329 -166,34 -378,48 -515,34 z"
         id="path29" />
      <path
         d="m 34886,33223 c -4,-27 -98,-894 -211,-1928 -112,-1034 -206,-1895 -209,-1912 l -5,-33 h 203 204 l 6,43 c 8,60 286,2721 286,2743 0,11 3,14 8,9 5,-6 294,-637 642,-1403 l 634,-1393 98,3 99,3 646,1397 c 356,769 649,1395 652,1392 3,-3 71,-631 151,-1397 l 145,-1392 203,-3 c 182,-2 202,-1 202,14 0,28 -421,3878 -425,3892 -3,8 -32,12 -98,12 h -94 l -140,-302 c -76,-167 -409,-891 -738,-1610 -330,-719 -603,-1304 -607,-1300 -4,4 -330,723 -725,1597 -395,875 -722,1596 -726,1603 -6,8 -38,12 -102,12 h -93 z"
         id="path31" />
      <path
         d="m 39577,33263 c -4,-3 -7,-885 -7,-1960 v -1953 h 220 220 v 774 775 l 628,3 c 602,4 632,5 742,26 644,127 980,521 980,1152 0,584 -296,976 -842,1119 -148,38 -215,49 -389,61 -160,11 -1542,14 -1552,3 z m 1628,-393 c 221,-21 369,-83 496,-209 88,-89 145,-190 181,-321 20,-75 23,-106 22,-270 0,-158 -4,-197 -22,-264 -38,-138 -86,-220 -182,-316 -129,-129 -268,-189 -486,-210 -54,-5 -348,-10 -651,-10 h -553 v 805 805 h 543 c 298,0 592,-5 652,-10 z"
         id="path33" />
      <path
         d="m 50560,33075 v -195 h 650 650 v -1765 -1765 h 220 220 v 1765 1765 h 650 650 l -2,193 -3,192 -1517,3 -1518,2 z"
         id="path35" />
      <path
         d="m 55163,33248 c -6,-13 -416,-887 -912,-1942 -726,-1548 -898,-1923 -890,-1938 9,-17 24,-18 220,-16 l 210,3 202,437 202,438 1064,-3 1064,-2 200,-437 200,-438 h 213 c 202,0 214,1 224,20 9,16 -131,324 -871,1912 -485,1041 -892,1914 -905,1941 l -24,47 h -94 c -86,0 -94,-2 -103,-22 z m 536,-1661 c 237,-521 431,-952 431,-957 0,-7 -313,-10 -876,-10 -830,0 -876,1 -871,18 5,17 846,1842 867,1883 7,11 13,19 15,17 1,-1 197,-429 434,-951 z"
         id="path37" />
    </g>
  </g>
</svg>
