<?xml version="1.0" encoding="UTF-8" standalone="no"?>
<!-- Created with Inkscape (http://www.inkscape.org/) -->

<svg
   width="464.80411mm"
   height="100.88021mm"
   viewBox="0 0 464.80411 100.88021"
   version="1.1"
   id="svg5"
   inkscape:version="1.1.2 (b8e25be833, 2022-02-05)"
   sodipodi:docname="whiteLogo.svg"
   xmlns:inkscape="http://www.inkscape.org/namespaces/inkscape"
   xmlns:sodipodi="http://sodipodi.sourceforge.net/DTD/sodipodi-0.dtd"
   xmlns="http://www.w3.org/2000/svg"
   xmlns:svg="http://www.w3.org/2000/svg">
  <sodipodi:namedview
     id="namedview7"
     pagecolor="#ffffff"
     bordercolor="#666666"
     borderopacity="1.0"
     inkscape:pageshadow="2"
     inkscape:pageopacity="0.0"
     inkscape:pagecheckerboard="0"
     inkscape:document-units="mm"
     showgrid="false"
     fit-margin-top="0"
     fit-margin-left="0"
     fit-margin-right="0"
     fit-margin-bottom="0"
     inkscape:zoom="1.0469406"
     inkscape:cx="746.46066"
     inkscape:cy="17.192952"
     inkscape:window-width="1920"
     inkscape:window-height="1017"
     inkscape:window-x="-8"
     inkscape:window-y="-8"
     inkscape:window-maximized="1"
     inkscape:current-layer="layer1" />
  <defs
     id="defs2">
    <clipPath
       clipPathUnits="userSpaceOnUse"
       id="clipPath974">
      <rect
         style="fill:none;fill-rule:evenodd;stroke-width:0.264583"
         id="rect976"
         width="501.79062"
         height="145.81949"
         x="-152.9675"
         y="48.606491" />
    </clipPath>
  </defs>
  <g
     inkscape:label="Layer 1"
     inkscape:groupmode="layer"
     id="layer1"
     transform="translate(101.0617,-176.74486)">
    <path
       style="fill:#ffffff;stroke-width:0.0891245"
       d="m 95.9042,277.58004 c -5.10427,-0.51653 -9.76659,-2.68406 -13.57909,-6.31298 -0.94897,-0.90327 -2.03584,-2.13294 -2.71157,-3.06782 -0.3085,-0.42682 -0.45395,-0.56074 -0.56171,-0.51719 -0.66784,0.26981 -3.36247,1.09298 -4.61794,1.41069 -15.027762,3.80293 -30.973405,0.12306 -42.798354,-9.87683 -2.349632,-1.98699 -5.188827,-4.98975 -7.070629,-7.47797 -4.766869,-6.30301 -7.886496,-13.70509 -8.975825,-21.29737 -0.394008,-2.74606 -0.45633,-3.70048 -0.451091,-6.90726 0.0052,-3.17409 0.09956,-4.5211 0.493231,-7.04009 1.539345,-9.84997 6.179659,-18.87711 13.358221,-25.98669 7.219932,-7.15057 16.478368,-11.78025 26.550626,-13.27667 2.405783,-0.35741 4.230789,-0.48311 7.041298,-0.48498 5.446072,-0.004 10.036353,0.72033 15.069273,2.37662 10.74211,3.53516 20.01904,10.92415 25.85166,20.59063 7.44693,12.34187 8.70586,27.57705 3.38803,41.00077 -3.18965,8.05159 -8.68576,15.22747 -15.56073,20.31655 -0.51801,0.38344 -0.97823,0.72917 -1.02272,0.7683 -0.0953,0.0839 0.68034,1.05484 1.48813,1.86279 2.13302,2.13343 4.8714,3.60026 7.93082,4.24821 1.37863,0.29197 3.60893,0.331 5.0498,0.0884 4.10013,-0.69046 7.70917,-3.07834 10.31822,-6.8269 0.52549,-0.755 0.70095,-0.87922 1.24805,-0.88362 0.32635,-0.003 0.44009,0.0461 0.69516,0.29795 0.43198,0.42647 0.41443,0.83216 -0.10084,2.33177 -1.23197,3.58541 -3.23334,6.82612 -5.73137,9.2805 -3.09031,3.03631 -7.01556,4.88281 -11.37283,5.34996 -0.80647,0.0864 -3.20169,0.10674 -3.92782,0.0333 z m 3.72247,-2.15778 c 4.42581,-0.49954 8.29996,-2.5865 11.1725,-6.01848 0.74734,-0.89289 1.69917,-2.18799 1.69917,-2.31196 0,-0.037 -0.37964,0.18327 -0.84364,0.48954 -1.62788,1.0745 -3.28247,1.79675 -5.16613,2.25504 -1.45481,0.35395 -2.33831,0.45408 -3.98922,0.4521 -6.12289,-0.007 -11.56408,-3.12652 -14.98161,-8.58817 -3.14173,-5.02088 -7.72403,-8.98404 -13.12627,-11.35268 -7.007579,-3.07251 -14.816432,-3.31576 -21.970328,-0.68439 -5.232617,1.92469 -9.897858,5.36394 -13.264774,9.77893 -0.978049,1.2825 -1.248005,1.72903 -1.102066,1.82293 0.784688,0.50485 2.799208,1.65444 3.802714,2.17004 1.234514,0.63428 3.026412,1.45313 3.179895,1.45313 0.04265,0 0.342135,-0.35216 0.665515,-0.78259 2.896054,-3.85462 7.072808,-6.63546 11.729241,-7.8092 2.114282,-0.53294 4.977812,-0.74854 7.123057,-0.5363 4.377777,0.43312 8.395266,2.14121 11.769126,5.00378 1.5906,1.34956 2.6265,2.55671 4.10917,4.78847 1.29578,1.95044 1.88707,2.68058 3.26356,4.02991 2.87156,2.81487 6.3084,4.67988 10.20097,5.53557 1.6778,0.36882 4.04415,0.49452 5.72912,0.30433 z m -34.174965,-7.08248 c 2.824745,-0.18468 6.034715,-0.69612 8.635265,-1.37588 1.33137,-0.348 3.70649,-1.08429 3.81104,-1.18143 0.0869,-0.0808 -1.01535,-1.45153 -1.84865,-2.29887 -3.07315,-3.12494 -7.242929,-5.12408 -11.674032,-5.59696 -1.292522,-0.13794 -3.560466,-0.0579 -4.888544,0.17262 -3.18908,0.55344 -6.231154,1.91076 -8.700712,3.88212 -1.099223,0.87747 -3.083972,2.96746 -3.529,3.71612 -0.04323,0.0727 0.360703,0.24205 1.313359,0.55047 5.387777,1.74431 11.330058,2.49471 16.881274,2.13181 z m -28.853328,-9.46277 c 0.893913,-2.08963 1.52998,-4.34604 1.924768,-6.82801 0.279158,-1.75501 0.275965,-5.43728 -0.0063,-7.21832 -0.232811,-1.46923 -0.698542,-3.37447 -1.125648,-4.60483 -1.04439,-3.00862 -2.689722,-5.9446 -4.560133,-8.13728 -1.477255,-1.73178 -2.518578,-3.03601 -3.11872,-3.90614 -3.237338,-4.69372 -5.096527,-9.55061 -5.762688,-15.05428 -0.174911,-1.44509 -0.146387,-5.62181 0.04837,-7.08436 0.432838,-3.25032 1.273946,-6.2444 2.531234,-9.01043 0.260125,-0.57228 0.459227,-1.04052 0.442436,-1.04052 -0.05782,0 -1.451969,1.90611 -2.170612,2.96771 -6.526951,9.64183 -8.975484,21.64887 -6.744604,33.074 1.513969,7.75355 5.04932,14.91206 10.343119,20.94315 1.189648,1.35533 3.742275,3.83389 5.074695,4.92744 1.218817,1.00032 2.532356,2.0151 2.615156,2.02036 0.03232,0.002 0.261309,-0.46977 0.508875,-1.04849 z m 53.601063,0.30434 c 4.01423,-3.07715 7.36042,-6.60084 10.09581,-10.63138 4.30597,-6.34475 6.81965,-13.43539 7.55009,-21.29737 0.14351,-1.54468 0.14292,-5.72633 -10e-4,-7.26147 -0.6995,-7.45985 -3.00472,-14.20925 -6.94129,-20.32327 -0.93077,-1.44561 -2.80013,-3.98355 -2.64166,-3.58646 0.0292,0.0731 0.25285,0.57117 0.4971,1.10693 1.25483,2.75239 2.10497,5.84449 2.4956,9.07684 0.18853,1.56001 0.21427,5.23538 0.0468,6.68587 -0.46386,4.01839 -1.51715,7.53376 -3.3245,11.09559 -1.45269,2.86289 -2.72454,4.70237 -5.51947,7.98284 -3.20042,3.75638 -5.24171,8.52671 -5.84149,13.65103 -0.19966,1.70585 -0.13935,4.91885 0.12368,6.58877 0.32366,2.0549 0.90289,4.1742 1.6337,5.97743 0.48149,1.18809 0.71274,1.68254 0.78686,1.68254 0.0353,0 0.50316,-0.33656 1.03977,-0.74789 z m -5.32193,-5.02281 c -0.4297,-2.06176 -0.49699,-2.83305 -0.49699,-5.69712 0,-2.18762 0.0327,-2.96103 0.16108,-3.80785 0.48856,-3.22304 1.3237,-5.85905 2.76347,-8.72262 0.80367,-1.59843 1.50618,-2.73232 2.59703,-4.19178 l 0.78339,-1.04807 0.0713,-0.9444 c 0.5536,-7.32997 -1.84491,-14.58162 -6.69753,-20.24929 -0.8479,-0.99031 -2.83772,-2.89539 -3.85225,-3.68819 -0.90729,-0.70899 -2.40776,-1.75791 -2.51467,-1.75791 -0.0354,0 -0.27064,0.35299 -0.52285,0.78443 -2.54919,4.36069 -7.072853,7.3849 -12.132962,8.11128 -1.099878,0.15788 -3.442325,0.18085 -4.565443,0.0448 -5.142928,-0.62323 -9.984758,-3.84248 -12.481019,-8.29844 -0.19782,-0.35311 -0.378858,-0.64202 -0.402305,-0.64202 -0.09941,0 -0.481714,0.23559 -1.196922,0.73759 -4.974107,3.4913 -8.623912,8.34137 -10.541684,14.00836 -1.199182,3.54357 -1.682278,7.32385 -1.380893,10.80562 l 0.09696,1.12018 0.822442,1.09248 c 3.065754,4.07234 4.950669,8.98122 5.439586,14.16635 0.117424,1.24532 0.117962,3.70475 0.0011,4.95906 -0.09133,0.98009 -0.497528,3.55772 -0.604439,3.83566 -0.03159,0.0821 0.36743,-0.23353 0.88671,-0.70142 5.720817,-5.15466 12.438726,-7.95684 19.990711,-8.33856 0.258026,-0.013 0.400403,-0.0603 0.394672,-0.13109 -0.0049,-0.0609 -0.01677,-1.07705 -0.0263,-2.25815 L 61.452364,241.2 60.705035,240.77109 c -2.778074,-1.59441 -4.90138,-3.9622 -5.821368,-6.49167 -0.240893,-0.66235 -0.509691,-1.90107 -0.509691,-2.34889 0,-0.15849 -0.177791,-0.54885 -0.451029,-0.99029 -0.878503,-1.41928 -1.21044,-2.92001 -0.964443,-4.36033 0.252841,-1.48042 0.786948,-2.47889 2.005012,-3.74822 0.775009,-0.80764 0.827716,-0.88811 1.106255,-1.6893 1.021679,-2.93876 2.995198,-5.45939 5.744802,-7.33739 l 0.786338,-0.53709 0.873058,0.58608 c 1.033878,0.69405 2.627992,2.17427 3.412447,3.16864 1.026657,1.30138 1.824117,2.76786 2.332346,4.28901 0.227188,0.68001 0.299287,0.79143 0.828156,1.27985 0.999568,0.92313 1.812428,2.24481 2.129288,3.46214 0.17553,0.67435 0.17595,2.13332 9e-4,2.86665 -0.15469,0.64777 -0.6236,1.69046 -1.009294,2.24424 -0.20853,0.29942 -0.289052,0.54861 -0.368893,1.14161 -0.20835,1.54746 -0.772174,2.99032 -1.7136,4.38521 -0.936735,1.38795 -3.172172,3.33995 -4.911776,4.28901 l -0.381217,0.20798 v 0.8471 c 0,0.46591 -0.02662,1.47361 -0.05879,2.23934 -0.04855,1.15539 -0.03705,1.39848 0.06757,1.42899 0.06934,0.0202 0.714409,0.0805 1.43351,0.13392 6.32711,0.47016 12.49598,2.98836 17.51713,7.15069 0.59861,0.49623 1.3485,1.16399 1.66641,1.4839 0.3179,0.31992 0.59076,0.5691 0.60633,0.55372 0.0156,-0.0154 -0.0504,-0.4057 -0.14665,-0.8674 z m -9.42447,-11.23616 c 0,-0.0577 0.10803,-0.70792 0.24007,-1.44497 0.41578,-2.32104 0.31562,-4.57129 -0.29117,-6.54113 -0.37696,-1.22374 -0.44843,-1.88232 -0.32409,-2.98633 0.28955,-2.5708 1.53768,-4.58392 3.68854,-5.94931 0.36699,-0.23297 0.88163,-0.50949 1.14365,-0.61448 0.58108,-0.23283 0.57787,-0.19922 0.17147,-1.79206 -0.7658,-3.00159 -1.94739,-5.83894 -3.71308,-8.91625 -0.29343,-0.5114 -0.51971,-0.94524 -0.50285,-0.9641 0.0169,-0.0189 0.37637,0.18039 0.79891,0.44277 3.12521,1.94062 5.49773,5.56249 6.18514,9.44216 0.0756,0.42675 0.1376,0.88417 0.13776,1.01649 0,0.17199 0.16892,0.4245 0.59168,0.88555 1.21254,1.32233 2.02541,2.80626 2.34136,4.27423 0.18885,0.87739 0.11329,2.77685 -0.14623,3.67647 -0.26197,0.90808 -0.96197,2.26651 -1.68826,3.27629 -0.78185,1.08703 -2.59472,2.88185 -3.84033,3.8021 -0.72482,0.53548 -1.42471,0.94007 -2.68467,1.55192 -1.85751,0.90202 -2.1079,1.00188 -2.1079,0.84065 z m 3.39713,-4.0448 c 0.84385,-0.59399 2.71008,-2.41305 3.38649,-3.30085 1.08564,-1.42493 1.648,-2.88899 1.648,-4.29046 0,-0.8513 -0.16582,-1.54671 -0.57118,-2.39541 l -0.29607,-0.61988 -0.1602,0.70844 c -0.35491,1.56948 -1.03177,3.07428 -1.85539,4.12489 -0.2398,0.3059 -0.4352,0.51909 -0.43424,0.47378 9.8e-4,-0.0453 0.0611,-0.60044 0.13365,-1.2336 0.14303,-1.24836 0.18,-4.61693 0.0528,-4.81511 -0.1354,-0.21103 -0.96803,0.31196 -1.81144,1.13781 -1.10163,1.07869 -1.60084,2.15037 -1.74787,3.75223 -0.051,0.55556 -0.0222,0.76119 0.22521,1.60932 0.38051,1.30425 0.62223,2.74311 0.69311,4.12568 0.0322,0.62788 0.0774,1.1416 0.10059,1.1416 0.0231,0 0.30956,-0.18829 0.63649,-0.41844 z m -30.533387,2.11511 c -3.260184,-2.09538 -5.553054,-5.8604 -6.152426,-10.10262 -0.08925,-0.6317 -0.11389,-0.68021 -0.62977,-1.23976 -1.079426,-1.17082 -1.880269,-2.55623 -2.251448,-3.89486 -0.269408,-0.97158 -0.266395,-2.95159 0.006,-3.93604 0.510086,-1.84362 1.555597,-3.44364 3.510728,-5.37272 1.375672,-1.35736 2.357884,-2.12645 3.658811,-2.86496 0.656204,-0.37251 3.153497,-1.50926 3.20458,-1.45871 0.01725,0.0171 -0.07277,0.569 -0.200045,1.22652 -0.199183,1.02903 -0.23247,1.44825 -0.239108,3.01085 -0.0084,1.98319 0.0651,2.50658 0.590886,4.20634 0.262779,0.84952 0.272036,0.93419 0.227474,2.08104 -0.05587,1.43771 -0.204529,2.05121 -0.786535,3.24598 -0.84884,1.74252 -2.113932,2.95797 -3.946302,3.79141 -0.317989,0.14464 -0.588635,0.2679 -0.601453,0.2739 -0.04988,0.0234 0.355187,1.81518 0.619348,2.73965 0.707367,2.47551 1.711797,4.78849 3.342257,7.69645 0.32529,0.58018 0.591442,1.06833 0.591442,1.0848 0,0.0918 -0.220666,-0.0221 -0.944422,-0.48727 z m -3.081048,-13.72386 c 1.599299,-1.03073 2.541173,-2.64034 2.652238,-4.53251 0.04364,-0.74339 0.02155,-0.93093 -0.189793,-1.61189 -0.403937,-1.30147 -0.590778,-2.42241 -0.650176,-3.90063 -0.03082,-0.76711 -0.0846,-1.39474 -0.119505,-1.39474 -0.123595,0 -1.310757,0.91955 -2.078412,1.60989 -2.492153,2.24117 -3.807548,4.6985 -3.629318,6.78007 0.06109,0.71355 0.398995,1.81094 0.722554,2.34661 l 0.206557,0.34197 0.109046,-0.55808 c 0.281571,-1.44105 1.058383,-3.16882 1.906801,-4.24103 l 0.449172,-0.56766 -0.05321,0.35422 c -0.355635,2.36754 -0.416127,5.80033 -0.102211,5.80033 0.06292,0 0.412244,-0.19196 0.776257,-0.42655 z m 20.129537,10.24783 c 2.038747,-1.69315 3.167122,-3.7133 3.331861,-5.96507 0.05647,-0.77189 0.06951,-0.80847 0.492102,-1.38027 1.189253,-1.60917 1.285373,-3.39553 0.264475,-4.91487 -0.436283,-0.64929 -0.799246,-1.0421 -1.468035,-1.58875 -0.28367,-0.23186 -0.515764,-0.47602 -0.515764,-0.54258 0,-0.25379 -0.572856,-1.88102 -0.90595,-2.57341 -0.191425,-0.39791 -0.599506,-1.0946 -0.906838,-1.54821 -0.543337,-0.80194 -2.013417,-2.36284 -2.694306,-2.86075 -0.33051,-0.24168 -0.340216,-0.24316 -0.579709,-0.0882 -0.476808,0.30843 -1.939183,1.7788 -2.493113,2.50675 -0.909243,1.19487 -1.715395,2.88145 -2.102092,4.39785 -0.07295,0.28609 -0.214244,0.45527 -0.722653,0.86532 -1.469756,1.18541 -2.202527,2.75784 -1.967823,4.22269 0.116698,0.72838 0.554263,1.68086 1.048104,2.2815 0.360533,0.4385 0.381217,0.49465 0.381217,1.03473 0,1.215 0.493689,2.72999 1.272735,3.90562 0.257406,0.38844 0.853351,1.08745 1.324329,1.55334 0.853602,0.84441 2.011326,1.76281 2.224207,1.76443 0.08628,8.8e-4 0.112122,-0.44163 0.112122,-1.91864 v -1.91949 l -1.146413,-1.15779 c -1.442335,-1.45664 -2.44725,-2.57087 -3.083299,-3.41872 -0.548674,-0.73137 -0.926877,-1.32552 -0.843753,-1.32552 0.02968,0 0.423599,0.18328 0.875372,0.40728 0.802232,0.39777 2.26554,1.32776 3.525358,2.2405 l 0.627886,0.4549 0.07198,-2.44277 0.07198,-2.44277 -1.02698,-1.05162 c -1.023114,-1.04766 -1.629823,-1.77208 -2.029006,-2.42265 l -0.210055,-0.34236 0.215562,0.0662 c 0.413302,0.12686 1.38753,0.64831 2.213874,1.18499 0.45772,0.29726 0.863514,0.54049 0.90177,0.54049 0.03825,0 0.120169,-0.56786 0.182043,-1.2619 0.197604,-2.21653 0.682548,-4.99871 0.826908,-4.74405 0.211203,0.37259 0.612118,2.80923 0.807776,4.90949 l 0.108221,1.16169 0.951167,-0.61355 c 0.977458,-0.63052 2.227185,-1.27659 2.310416,-1.19441 0.148342,0.14644 -0.961985,1.55019 -2.366217,2.99153 l -0.742144,0.76176 0.0052,2.11627 c 0.0029,1.16394 0.03312,2.26193 0.06727,2.43997 l 0.06211,0.32371 0.672735,-0.48323 c 1.430146,-1.02726 2.577896,-1.7617 3.394821,-2.17232 0.467775,-0.23512 0.868403,-0.40982 0.890289,-0.38822 0.06949,0.0686 -0.576382,1.0426 -1.178023,1.77647 -0.707933,0.86354 -2.70872,2.9777 -3.353756,3.54381 l -0.470915,0.41328 v 2.03281 2.0328 l 0.426066,-0.28467 c 0.234336,-0.15656 0.750449,-0.55406 1.146915,-0.88332 z m -32.922588,-13.4963 c 0.412037,-3.39359 1.326491,-6.44148 2.86945,-9.56389 1.618853,-3.276 3.249438,-5.52122 5.916735,-8.14702 1.577358,-1.5528 2.730624,-2.49688 4.476615,-3.66457 l 1.008709,-0.6746 -0.206557,-0.66416 c -0.764828,-2.45926 -0.90804,-5.52096 -0.378517,-8.09208 1.332707,-6.47097 6.551654,-11.65009 13.038483,-12.93901 3.757703,-0.74664 7.352945,-0.31366 10.724157,1.29151 5.106071,2.43121 8.562601,7.09455 9.380231,12.65521 0.22033,1.49848 0.13695,4.16146 -0.17607,5.62322 -0.12516,0.58446 -0.30982,1.29802 -0.41035,1.58571 -0.10054,0.28768 -0.1828,0.53385 -0.1828,0.54704 0,0.0132 0.24279,0.16961 0.53953,0.34758 0.29675,0.17796 1.09394,0.73389 1.77153,1.23539 3.79756,2.81062 6.73705,6.27905 8.89646,10.49728 1.99147,3.8902 2.97634,7.56201 3.24221,12.0877 0.0544,0.9254 0.1063,1.69047 0.11543,1.70016 0.0388,0.0412 1.13503,-1.55945 1.696,-2.47623 2.39764,-3.91841 3.87361,-8.17742 4.3804,-12.63995 0.16686,-1.46919 0.14314,-4.63407 -0.0464,-6.19829 -0.42648,-3.51885 -1.32485,-6.50139 -2.92147,-9.6992 -1.45585,-2.9158 -3.27625,-5.45624 -5.60797,-7.82609 -2.54024,-2.58179 -4.29185,-3.78717 -8.25351,-5.67968 -12.763337,-6.09715 -27.527817,-5.96227 -40.148119,0.36675 -1.81879,0.91212 -3.725385,2.02071 -4.566367,2.65511 -1.633133,1.23197 -3.702601,3.30435 -5.219369,5.22671 -3.437265,4.35639 -5.487072,9.20319 -6.231494,14.73449 -0.216684,1.61 -0.218065,5.40654 -0.0025,6.95153 0.565734,4.05526 1.812196,7.7601 3.749181,11.14367 0.566174,0.989 1.540654,2.49622 2.089821,3.23231 l 0.187658,0.25154 0.06459,-1.35847 c 0.03553,-0.74715 0.127497,-1.8765 0.204368,-2.50967 z M 67.06627,210.28069 c 1.272233,-0.39921 2.913806,-1.20463 3.991564,-1.9584 0.468676,-0.32778 1.316316,-1.05424 1.883656,-1.61434 0.56734,-0.56011 1.30318,-1.39695 1.6352,-1.85965 1.12617,-1.56942 2.05221,-3.71847 2.46124,-5.71177 0.25203,-1.22813 0.22844,-4.18843 -0.0432,-5.42388 -0.64219,-2.92066 -1.93367,-5.2865 -4.0039,-7.33464 -0.91586,-0.9061 -2.130207,-1.89726 -2.324466,-1.89726 -0.03012,0 0.0924,0.22712 0.272269,0.50472 0.795557,1.22779 1.522957,3.15458 1.835447,4.86183 0.15476,0.8455 0.19319,1.40355 0.19454,2.82475 0.004,3.7677 -0.65355,6.41725 -2.143625,8.64337 -0.75306,1.12505 -2.118175,2.28114 -3.334301,2.82375 l -0.42568,0.18993 -0.324941,1.30012 c -0.460097,1.84088 -0.750414,2.57908 -2.031051,5.16451 -0.05271,0.10642 1.369752,-0.20316 2.357274,-0.51304 z m -6.592807,0.45472 c 0,-0.0253 -0.185191,-0.41007 -0.411526,-0.855 -0.74357,-1.46165 -1.455513,-3.4739 -1.747507,-4.93916 -0.106399,-0.53392 -0.118311,-0.55018 -0.566963,-0.77405 -2.859574,-1.42684 -4.529402,-3.90394 -5.211942,-7.73158 -0.349984,-1.9627 -0.391065,-4.82263 -0.09349,-6.50876 0.297717,-1.68695 1.013409,-3.59857 1.849529,-4.94011 0.149706,-0.24021 0.256976,-0.45176 0.238373,-0.47012 -0.09378,-0.0926 -1.314848,0.91121 -2.313771,1.90205 -1.224585,1.2147 -1.958458,2.20995 -2.688314,3.64583 -3.855644,7.58531 -0.279866,16.74469 7.780374,19.92948 1.132717,0.44756 3.165239,0.92365 3.165239,0.74142 z m 2.807773,-1.96857 c 0.752477,-1.53748 1.236309,-2.99154 1.654571,-4.97244 0.302578,-1.43303 0.329326,-1.67962 0.332394,-3.06389 0.0037,-1.64429 -0.08525,-2.04027 -0.610745,-2.72046 -0.473382,-0.6127 -1.635644,-1.02478 -2.453906,-0.87001 -1.375188,0.26011 -2.051888,1.04015 -2.274761,2.62209 -0.232165,1.64795 0.489052,5.43129 1.501321,7.87564 0.445414,1.07554 1.090442,2.34669 1.190796,2.34669 0.03542,0 0.332565,-0.54793 0.66033,-1.21762 z M 57.7484,200.48692 c 0.01809,-1.97865 0.420603,-3.12088 1.461334,-4.14688 0.757437,-0.74671 1.49393,-1.11146 2.629265,-1.30214 0.787558,-0.13228 0.897698,-0.13136 1.645341,0.0136 1.9129,0.37082 3.175248,1.48913 3.761524,3.33235 0.104444,0.32834 0.173494,0.94849 0.211911,1.90318 l 0.05699,1.41612 0.59303,-0.57485 c 1.612135,-1.56272 2.422449,-3.71836 2.681838,-7.13435 0.256348,-3.37596 -0.512167,-6.34696 -2.243824,-8.67435 -0.4592,-0.61717 -0.494784,-0.64575 -0.521119,-0.41853 -0.08359,0.72129 -0.310983,1.50317 -0.604161,2.07741 -0.325003,0.63659 -0.328349,0.65388 -0.229905,1.18753 0.143561,0.77823 0.124312,2.20589 -0.03811,2.82707 -0.59564,2.27799 -2.258427,3.60079 -4.52629,3.60079 -2.265791,0 -3.950536,-1.32335 -4.540444,-3.56644 -0.176714,-0.67197 -0.199327,-2.09037 -0.04593,-2.88172 0.09945,-0.51307 0.09317,-0.56174 -0.119971,-0.92982 -0.310813,-0.53674 -0.58293,-1.3748 -0.657622,-2.02528 l -0.06276,-0.54654 -0.467613,0.60787 c -0.975826,1.26853 -1.734743,3.00717 -2.107761,4.82878 -0.172831,0.84401 -0.203346,1.26291 -0.198421,2.72419 0.01317,3.90694 0.929998,6.70992 2.734131,8.35893 0.298775,0.2731 0.551015,0.49649 0.560541,0.49646 0.0095,-4e-5 0.02214,-0.52804 0.02804,-1.17335 z m -1.185773,-6.12348 c -0.658644,-0.65025 -0.184787,-1.60036 0.715037,-1.43371 0.417706,0.0774 0.888585,0.40699 0.990635,0.69345 0.176032,0.49418 -0.377674,1.04036 -1.055361,1.04102 -0.273391,0 -0.408879,-0.0624 -0.650311,-0.30076 z m 10.952133,0.19774 c -0.843045,-0.46032 -0.773304,-1.14763 0.155313,-1.53069 0.447064,-0.18441 0.716651,-0.17252 0.995334,0.0439 0.446831,0.347 0.375297,1.09661 -0.138565,1.45194 -0.230686,0.15951 -0.75097,0.17744 -1.012082,0.0349 z m -4.081261,-2.22131 c 0.2902,-0.0725 0.533793,-0.22904 0.866725,-0.5571 0.567349,-0.55904 0.837538,-1.29739 0.837538,-2.28872 0,-0.58983 -0.04044,-0.80472 -0.362901,-1.92801 -0.117683,-0.40993 -0.116517,-0.41478 0.180294,-0.74851 0.164308,-0.18476 0.421814,-0.59556 0.572237,-0.91291 0.522509,-1.10235 0.298874,-2.2775 -0.583145,-3.06419 -0.609624,-0.54374 -1.057988,-0.69422 -2.183484,-0.73282 -1.291087,-0.0443 -1.830639,0.13679 -2.562377,0.85997 -1.128725,1.11551 -1.065039,2.46213 0.189056,3.99778 l 0.184949,0.22647 -0.233108,0.79191 c -0.598806,2.03431 -0.0092,3.886 1.377162,4.32529 0.73364,0.23245 0.897859,0.23541 1.717054,0.0308 z M -68.96084,249.60423 c -3.52566,-0.29386 -6.68659,-1.71834 -9.23776,-4.16305 l -1.03267,-0.98958 -0.53819,0.0942 c -0.94244,0.16498 -4.69585,0.13081 -5.83037,-0.0531 -7.232183,-1.17222 -12.674503,-5.75309 -14.69579,-12.36963 -0.95029,-3.11073 -1.02052,-6.87373 -0.18811,-10.08016 2.179667,-8.39607 10.010067,-13.7811 19.20279,-13.2059 6.88131,0.43057 12.54069,4.07249 15.40639,9.91432 3.068775,6.25583 2.225536,13.98565 -2.10558,19.30149 -1.66981,2.04945 -3.99721,3.84267 -6.38419,4.9189 -0.43122,0.19443 -0.78423,0.37343 -0.78448,0.39778 -9.5e-4,0.0946 1.37442,1.0359 2.01926,1.38201 0.82344,0.44199 2.33093,0.95466 3.3489,1.1389 1.94484,0.352 4.31996,0.0138 6.256,-0.89073 1.628353,-0.7608 3.422643,-2.24703 4.417043,-3.65868 0.427671,-0.60712 0.462035,-0.63598 0.462035,-0.38796 0,0.86421 -0.527685,2.76056 -1.054349,3.78906 -1.227559,2.39723 -3.542319,4.14092 -6.217339,4.68344 -0.7004,0.14205 -2.333,0.23788 -3.04359,0.17866 z m -10.53952,-8.71298 c 6.51116,-1.36856 10.80389,-6.16948 11.44273,-12.79738 0.2438,-2.52944 -0.26952,-5.49571 -1.34858,-7.7928 -1.43679,-3.05862 -4.11762,-5.58002 -7.29334,-6.85958 -5.92428,-2.38701 -12.869303,-0.90326 -16.865873,3.60327 -4.51347,5.08941 -4.77452,13.23775 -0.59796,18.6648 2.31202,3.00426 5.59286,4.79002 9.909023,5.39346 0.148,0.0207 1.07638,0.0239 2.06306,0.007 1.39979,-0.0238 1.99104,-0.0719 2.69094,-0.21896 z m 36.735902,3.70493 c -3.493757,-0.36018 -6.889053,-1.71153 -9.647089,-3.83962 -0.885401,-0.68317 -2.436451,-2.2546 -3.102315,-3.14307 -3.545011,-4.73016 -4.527117,-10.9903 -2.625723,-16.73682 2.564253,-7.74985 10.126983,-12.58018 18.848998,-12.0389 3.320703,0.20609 6.233361,1.10259 8.913153,2.74347 5.734756,3.51147 8.896128,10.01994 8.23578,16.9554 -0.527819,5.54357 -3.407692,10.27006 -8.088729,13.27537 -3.423685,2.19806 -8.113808,3.23987 -12.534075,2.78417 z m 5.233281,-3.70426 c 3.965973,-0.83955 7.045074,-2.85472 9.13625,-5.97935 2.802015,-4.18678 3.165947,-10.04185 0.915673,-14.73167 -0.67644,-1.40976 -1.472196,-2.50108 -2.72552,-3.73783 -1.919476,-1.89411 -3.912594,-3.01317 -6.510411,-3.65539 -1.435985,-0.35499 -2.233015,-0.44748 -3.856218,-0.44748 -1.623203,0 -2.420233,0.0925 -3.856218,0.44748 -2.597818,0.64222 -4.590936,1.76128 -6.510411,3.65539 -1.275345,1.25848 -2.057494,2.33974 -2.763651,3.82055 -2.211542,4.63759 -1.830585,10.48851 0.953804,14.64895 2.267486,3.38808 5.862988,5.56575 10.158269,6.15252 1.045055,0.14276 4.052308,0.0398 5.058433,-0.17317 z m 31.0450366,3.67437 c -3.9065656,-0.54492 -7.2350806,-2.16106 -9.7895566,-4.75329 -0.981395,-0.9959 -1.661504,-1.91548 -1.629078,-2.2027 0.02051,-0.18167 0.314473,-0.48578 1.22672,-1.26908 0.659855,-0.56659 1.270833,-1.03015 1.357723,-1.03015 0.08689,0 0.389523,0.27941 0.672592,0.621 0.820119,0.98964 2.311932,2.33742 3.334221,3.01229 2.2478236,1.48393 4.5489286,2.21346 6.9694576,2.20956 2.239949,-0.004 4.12708896,-0.48319 5.545816,-1.40935 1.723979,-1.12543 2.616116,-2.66456 2.62113,-4.52206 0.0043,-1.59219 -0.406449,-2.59438 -1.509807,-3.68378 -1.211004,-1.19569 -2.46576304,-1.80718 -6.511917,-3.17352 -4.37113,-1.47606 -6.4341496,-2.34625 -7.9755746,-3.36411 -1.578327,-1.04222 -2.468545,-1.99377 -3.154116,-3.3714 -0.588975,-1.18352 -0.738107,-1.89889 -0.738493,-3.54249 0,-1.23994 0.02828,-1.52271 0.228829,-2.26433 0.787037,-2.91043 3.012383,-5.13048 6.2854206,-6.27044 2.921591,-1.01756 6.922502,-1.00447 10.07602496,0.0329 2.25497404,0.74183 4.41370144,2.17064 5.90955144,3.91139 0.28332,0.3297 0.490917,0.65702 0.490917,0.77403 0,0.26385 -2.277048,2.35885 -2.552035,2.34801 -0.106777,-0.004 -0.3662104,-0.21752 -0.6193034,-0.50919 -1.007955,-1.16162 -2.592489,-2.33777 -3.90737304,-2.90031 -3.10713196,-1.32933 -7.03365496,-1.16291 -9.54779296,0.40468 -1.1126416,0.69373 -2.0336256,1.9047 -2.2926646,3.01453 -0.05084,0.21781 -0.09342,0.71755 -0.09463,1.11053 -0.0037,1.20883 0.395864,2.1991 1.241583,3.07708 1.1683166,1.21287 2.6934436,1.94553 7.6811846,3.69004 2.78146496,0.97284 3.90915796,1.41971 5.217566,2.06753 3.2957494,1.63181 4.9991964,3.59202 5.5939304,6.43714 0.167762,0.80252 0.187621,1.11872 0.147275,2.3445 -0.05436,1.65148 -0.220729,2.39299 -0.814629,3.63074 -1.35322,2.82027 -4.2729284,4.78839 -8.0902004,5.45346 -1.394778,0.24301 -4.084383,0.30646 -5.372771,0.12675 z m 139.9475904,0.003 c -6.4682,-0.81301 -11.71149,-4.45012 -14.34686,-9.95198 -1.81333,-3.78569 -2.23491,-8.45897 -1.14097,-12.64765 1.74179,-6.66918 7.32563,-11.6808 14.34799,-12.87762 3.4721,-0.59175 7.31834,-0.27139 10.40497,0.86663 6.13667,2.26257 10.34543,7.32371 11.43696,13.75322 0.19929,1.17386 0.27164,3.71426 0.13994,4.91355 -0.30387,2.7673 -1.08356,5.17436 -2.38111,7.35099 -2.70531,4.5381 -7.22753,7.53506 -12.78371,8.47199 -1.36167,0.22962 -4.31223,0.29244 -5.67721,0.12087 z m 5.42501,-3.66654 c 6.76084,-1.38262 11.25849,-6.64386 11.52601,-13.48286 0.15519,-3.9669 -0.97848,-7.37548 -3.39843,-10.21799 -3.93022,-4.61653 -10.99578,-6.17934 -16.9999,-3.76017 -3.17572,1.27956 -5.85656,3.80096 -7.29334,6.85958 -1.07878,2.29649 -1.59206,5.2617 -1.34894,7.7928 0.47478,4.94291 3.00051,8.91419 7.15879,11.25597 1.33893,0.75403 3.60019,1.49051 5.24092,1.70693 1.09128,0.14395 4.10045,0.0532 5.11489,-0.15426 z m 112.95782,3.7401 c -4.48424,-0.47025 -7.97224,-1.96195 -11.11276,-4.75256 -2.96967,-2.63879 -5.04588,-6.77267 -5.52425,-10.99917 -0.13342,-1.17872 -0.11085,-3.43222 0.0463,-4.62244 1.08798,-8.24064 7.41466,-14.32465 15.96283,-15.35052 1.12018,-0.13444 3.78657,-0.13549 4.79885,-0.002 2.04586,0.27001 4.16791,0.85264 5.75865,1.58111 5.6798,2.60103 9.42678,7.72657 10.2097,13.96601 0.21431,1.70794 0.11543,4.224 -0.23666,6.02171 -1.42838,7.29319 -7.34591,12.80655 -15.01582,13.99025 -0.90622,0.13985 -4.10493,0.24949 -4.88683,0.1675 z m 3.98005,-3.62392 c 6.95476,-0.99936 11.75656,-6.1376 12.29784,-13.15944 0.40951,-5.31253 -1.94051,-10.30393 -6.16786,-13.10042 -6.13186,-4.05636 -14.94902,-2.9405 -19.51247,2.46942 -1.46926,1.74179 -2.44158,3.667 -2.97289,5.88639 -0.33654,1.40583 -0.43424,2.46505 -0.38383,4.16158 0.07,2.35656 0.47627,4.04954 1.45481,6.06271 0.70833,1.45727 1.44985,2.47779 2.69007,3.70219 2.23422,2.20574 4.80926,3.47244 8.07855,3.97395 1.10884,0.1701 3.34476,0.1719 4.51578,0.004 z m 32.12342,3.57977 c -4.50149,-0.51145 -8.67245,-2.78601 -11.2133,-6.11499 -0.29543,-0.38707 -0.53715,-0.77707 -0.53715,-0.86667 0,-0.20815 2.43237,-2.30571 2.67374,-2.30571 0.098,0 0.28649,0.14649 0.42735,0.33208 1.69759,2.23667 4.33683,4.11162 6.99152,4.96686 3.76496,1.21293 8.35379,0.3508 10.39509,-1.95297 0.86604,-0.97738 1.30893,-2.16001 1.30893,-3.49512 0,-1.51532 -0.45947,-2.6212 -1.51985,-3.65806 -1.18428,-1.15801 -2.35407,-1.71901 -6.64268,-3.18565 -5.80012,-1.98354 -7.75337,-2.94056 -9.47247,-4.64121 -1.6964,-1.67819 -2.35212,-3.41698 -2.25402,-5.97712 0.0552,-1.44147 0.25473,-2.27142 0.82222,-3.42052 1.84679,-3.73954 6.33699,-5.80579 11.82501,-5.44148 3.32899,0.22099 6.03919,1.26798 8.44182,3.26122 0.90605,0.75166 1.95183,1.94093 1.91896,2.18224 -0.0297,0.21779 -2.29702,2.33991 -2.50303,2.34272 -0.0806,10e-4 -0.6053,-0.44945 -1.16608,-1.00121 -0.56077,-0.55177 -1.33903,-1.21491 -1.72946,-1.47365 -2.79077,-1.84948 -6.37264,-2.3428 -9.56057,-1.31676 -2.78001,0.89475 -4.37862,3.05178 -4.05181,5.46714 0.28123,2.07844 1.64981,3.40827 4.84781,4.71055 0.62288,0.25365 2.35084,0.89148 3.8399,1.4174 1.48906,0.52592 3.16417,1.14045 3.72247,1.36561 4.61401,1.86089 6.84982,4.17872 7.38721,7.65828 0.38933,2.52089 -0.15077,4.94734 -1.52763,6.86298 -0.7569,1.0531 -2.24104,2.2787 -3.53776,2.92147 -1.35301,0.67068 -3.19636,1.17945 -4.9584,1.36852 -1.00592,0.10794 -2.95139,0.10499 -3.92782,-0.006 z m -127.76142,-0.71972 c 0.0333,-0.19819 3.7987,-34.26887 3.7987,-34.37169 0,-0.0297 0.39854,-0.0539 0.88566,-0.0539 h 0.88567 l 6.492,14.21034 c 3.57059,7.81568 6.51269,14.21154 6.53798,14.21301 0.0253,10e-4 3.01442,-6.38322 6.64252,-14.1882 l 6.59654,-14.19087 0.89211,-0.0249 0.89212,-0.0249 1.87499,16.98305 c 1.03124,9.34068 1.89428,17.13249 1.91788,17.31513 l 0.0429,0.33208 h -1.80407 c -1.79861,0 -1.80418,-8.9e-4 -1.84611,-0.19925 -0.0231,-0.10958 -0.61911,-5.68852 -1.32441,-12.39764 -0.70528,-6.70911 -1.30624,-12.19839 -1.33545,-12.19839 -0.0292,0 -2.56872,5.36973 -5.64337,11.93273 -3.07464,6.563 -5.69307,12.14194 -5.81873,12.39764 l -0.22846,0.46491 h -0.85964 -0.85965 l -5.73632,-12.44364 c -3.15498,-6.84401 -5.74551,-12.41298 -5.75674,-12.3755 -0.0204,0.0682 -2.62684,24.62901 -2.62684,24.75327 0,0.0362 -0.82187,0.0659 -1.82637,0.0659 h -1.82638 z m 45.77739,-17.11774 v -17.31725 l 7.64676,0.0344 c 8.2412,0.037 7.98924,0.0237 9.88921,0.5236 4.82488,1.26954 7.48928,4.79181 7.48928,9.90063 0,4.15505 -1.75955,7.28224 -5.03253,8.94417 -0.94887,0.48181 -2.11342,0.89428 -3.1371,1.11112 -1.60049,0.33903 -2.58992,0.38856 -7.81854,0.39139 l -5.09037,0.003 v 6.86298 6.86298 h -1.97335 -1.97336 z m 15.79639,0.1109 c 2.66707,-0.64158 4.21976,-2.06638 4.94104,-4.53406 0.18505,-0.63312 0.20648,-0.88731 0.20159,-2.39097 -0.006,-1.9134 -0.12004,-2.49855 -0.72695,-3.73729 -0.46795,-0.95511 -1.58466,-2.06518 -2.54155,-2.52647 -0.80211,-0.38667 -1.74097,-0.64793 -2.77829,-0.77314 -0.4424,-0.0534 -2.88858,-0.0917 -5.8528,-0.0917 h -5.09272 v 7.13405 7.13405 l 5.62856,-0.0359 c 4.78104,-0.0305 5.71777,-0.0574 6.22112,-0.17849 z m 94.44252,1.57621 v -15.63014 h -5.83037 -5.83037 v -1.68254 -1.68253 h 13.58925 13.58926 v 1.68189 1.68189 l -5.80795,0.0228 -5.80795,0.0228 -0.0227,15.60774 -0.0227,15.60774 h -1.92826 -1.92826 z m 13.46503,15.47179 c -0.0673,-0.12416 1.6605,-3.83425 8.0522,-17.29028 l 8.1379,-17.13219 0.89799,-0.0251 0.89799,-0.0251 8.08928,17.14404 c 6.69024,14.17896 8.07323,17.17367 7.99644,17.31534 -0.0874,0.16112 -0.20628,0.17129 -2.0032,0.17129 h -1.91035 l -1.82115,-3.94108 -1.82115,-3.94108 -9.50838,0.0225 -9.50838,0.0225 -1.83762,3.91854 -1.83762,3.91854 h -1.86912 c -1.70236,0 -1.87678,-0.0141 -1.95483,-0.15809 z m 24.81172,-11.25916 c -0.0733,-0.27667 -7.72223,-16.83189 -7.77557,-16.82929 -0.0531,0.003 -7.83407,16.65765 -7.88141,16.87002 -0.0253,0.11365 0.9654,0.13009 7.83661,0.13009 7.7249,0 7.86481,-0.003 7.82037,-0.17082 z"
       id="path996" />
  </g>
</svg>
